<svg xmlns="http://www.w3.org/2000/svg" width="42" height="42" viewBox="0 0 42 42"><path d="M 21 0 C 9.407943 0 0 9.408 0 21 C 0 32.5921 9.407943 42 21 42 C 32.592057 42 42 32.5921 42 21 C 42 9.408 32.592057 0 21 0 z M 21 1 C 32.051617 1 41 9.9484 41 21 C 41 32.0516 32.051617 41 21 41 C 9.948383 41 1 32.0516 1 21 C 1 9.9484 9.948383 1 21 1 z M 29.935547 11.742188 L 29.935547 11.744141 L 29.935547 12.744141 C 30.284532 12.744141 30.787671 12.743831 31.144531 12.832031 C 31.322961 12.877031 31.452531 12.944553 31.513672 13.001953 C 31.574812 13.058953 31.599609 13.089969 31.599609 13.230469 L 31.599609 18.232422 C 31.599609 18.577222 31.752034 18.809403 31.908203 19.033203 C 32.064371 19.257103 32.251766 19.466609 32.431641 19.662109 C 32.611517 19.857709 32.784222 20.038728 32.898438 20.173828 C 32.908558 20.185828 32.908859 20.188219 32.917969 20.199219 C 32.803464 20.316019 32.623825 20.479116 32.435547 20.666016 C 32.057443 21.041316 31.578125 21.520716 31.578125 22.228516 L 31.578125 27.259766 C 31.578125 27.400066 31.552875 27.425987 31.472656 27.492188 C 31.392446 27.558188 31.230915 27.630628 31.03125 27.673828 C 30.631919 27.760828 30.168969 27.738281 29.935547 27.738281 L 29.935547 28.738281 C 30.04862 28.738281 30.656607 28.777391 31.242188 28.650391 C 31.534979 28.587391 31.841903 28.484472 32.109375 28.263672 C 32.376846 28.042772 32.578125 27.671366 32.578125 27.259766 L 32.578125 22.228516 C 32.578125 22.064116 32.807807 21.7053 33.140625 21.375 C 33.307033 21.2098 33.482609 21.053938 33.634766 20.898438 C 33.710846 20.820438 33.781057 20.743737 33.847656 20.648438 C 33.914256 20.553437 34 20.436797 34 20.216797 C 34 19.999497 33.9257 19.894575 33.865234 19.796875 C 33.804764 19.698875 33.736256 19.615044 33.662109 19.527344 C 33.513815 19.352044 33.338107 19.169275 33.167969 18.984375 C 32.997832 18.799375 32.834857 18.611384 32.728516 18.458984 C 32.622176 18.306584 32.599609 18.183369 32.599609 18.230469 L 32.599609 13.228516 C 32.599609 12.848516 32.437251 12.496784 32.197266 12.271484 C 31.957281 12.046184 31.671535 11.932428 31.392578 11.861328 C 30.834661 11.719228 30.257195 11.742188 29.935547 11.742188 z M 12.064453 11.744141 C 11.742807 11.744141 11.165336 11.721181 10.607422 11.863281 C 10.328465 11.934281 10.040766 12.048137 9.8007812 12.273438 C 9.5607961 12.498737 9.4003906 12.850469 9.4003906 13.230469 L 9.4003906 18.232422 C 9.4003906 18.185422 9.3778246 18.308338 9.2714844 18.460938 C 9.1651438 18.613337 9.0021683 18.801328 8.8320312 18.986328 C 8.6618942 19.171228 8.484231 19.353997 8.3359375 19.529297 C 8.2617905 19.617297 8.1952346 19.701128 8.1347656 19.798828 C 8.0742966 19.896828 8 20.00145 8 20.21875 C 8 20.43875 8.083791 20.555191 8.1503906 20.650391 C 8.2169896 20.745391 8.2891559 20.822691 8.3652344 20.900391 C 8.5173914 21.055891 8.6910131 21.211753 8.8574219 21.376953 C 9.1902395 21.707253 9.421875 22.066069 9.421875 22.230469 L 9.421875 27.261719 C 9.421875 27.673319 9.6212001 28.044725 9.8886719 28.265625 C 10.156144 28.486425 10.465023 28.588844 10.757812 28.652344 C 11.343395 28.779244 11.951381 28.740234 12.064453 28.740234 L 12.064453 27.740234 C 11.831032 27.740234 11.36808 27.761781 10.96875 27.675781 C 10.769085 27.632781 10.605606 27.560341 10.525391 27.494141 C 10.445181 27.428141 10.421875 27.402219 10.421875 27.261719 L 10.421875 22.230469 C 10.421875 21.522669 9.9406043 21.043269 9.5625 20.667969 C 9.3734479 20.480369 9.1945167 20.316119 9.0800781 20.199219 C 9.0888181 20.188219 9.0899584 20.184828 9.0996094 20.173828 C 9.213825 20.038728 9.3884842 19.859663 9.5683594 19.664062 C 9.7482346 19.468562 9.9356281 19.259056 10.091797 19.035156 C 10.247965 18.811356 10.400391 18.579175 10.400391 18.234375 L 10.400391 13.232422 C 10.400391 13.091522 10.425188 13.061306 10.486328 13.003906 C 10.547468 12.946906 10.675086 12.877431 10.853516 12.832031 C 11.210376 12.741031 11.71547 12.744141 12.064453 12.744141 L 12.064453 11.744141 z M 24.408203 11.765625 C 24.074295 11.819625 23.76144 12.000269 23.550781 12.292969 L 22.048828 14.376953 L 22.068359 14.390625 L 14.833984 24.388672 L 13.927734 30 L 18.960938 27.357422 L 26.167969 17.34375 L 26.169922 17.34375 L 26.480469 16.910156 L 27.669922 15.257812 C 28.091169 14.672413 27.956432 13.841222 27.371094 13.419922 L 25.388672 11.992188 C 25.095998 11.781488 24.74211 11.711225 24.408203 11.765625 z M 24.566406 12.744141 C 24.645046 12.731141 24.729799 12.753687 24.804688 12.804688 L 26.787109 14.230469 C 26.936898 14.338269 26.967197 14.523928 26.859375 14.673828 L 25.666016 16.332031 L 23.154297 14.552734 L 24.361328 12.876953 C 24.415228 12.801953 24.487764 12.756941 24.566406 12.744141 z M 22.587891 15.378906 L 25.080078 17.144531 L 18.744141 25.947266 L 16.242188 24.146484 L 22.587891 15.378906 z M 15.744141 25.021484 L 18.070312 26.695312 L 15.234375 28.183594 L 15.744141 25.021484 z " color="#000" font-family="sans-serif" font-weight="400" overflow="visible" white-space="normal" style="line-height:normal;text-indent:0;text-align:start;text-decoration-line:none;text-decoration-style:solid;text-decoration-color:#000;text-transform:none;block-progression:tb;isolation:auto;mix-blend-mode:normal"/></svg>